<?xml version="1.0" standalone="no"?>
<!DOCTYPE svg PUBLIC "-//W3C//DTD SVG 20010904//EN"
 "http://www.w3.org/TR/2001/REC-SVG-20010904/DTD/svg10.dtd">
<svg version="1.0" xmlns="http://www.w3.org/2000/svg"
 width="500.000000pt" height="500.000000pt" viewBox="0 0 500.000000 500.000000"
 preserveAspectRatio="xMidYMid meet">
<metadata>
Created by potrace 1.11, written by Peter Selinger 2001-2013
</metadata>
<g transform="translate(0.000000,500.000000) scale(0.100000,-0.100000)"
fill="#000000" stroke="none">
<path d="M1625 4516 c-183 -94 -288 -136 -508 -201 -120 -36 -227 -69 -237
-75 -23 -12 -44 -83 -36 -121 3 -16 28 -56 56 -91 75 -91 176 -247 216 -332
39 -81 38 -79 49 -421 3 -104 8 -244 10 -310 14 -430 19 -1107 16 -2058 -1
-208 1 -382 4 -387 3 -5 23 -15 44 -21 34 -10 44 -8 102 20 72 35 134 49 199
45 78 -4 213 -16 234 -20 12 -2 41 -7 66 -10 25 -3 124 -21 220 -40 96 -19
191 -37 210 -40 19 -3 42 -7 50 -9 17 -4 60 -11 165 -24 111 -14 298 -5 390
18 87 23 219 73 275 104 99 55 131 75 199 126 140 104 294 275 398 441 120
193 238 487 277 690 2 14 12 58 20 99 9 41 19 101 22 135 3 33 8 64 10 67 9
15 19 202 19 354 -1 143 -4 182 -22 245 -24 82 -55 153 -95 215 -74 116 -260
257 -368 279 -19 4 -46 10 -60 12 -51 11 -192 20 -284 19 -92 -1 -96 0 -90 19
17 57 111 290 145 357 52 105 78 132 149 158 50 18 60 26 60 45 0 30 -44 74
-78 78 -73 9 -118 -28 -185 -152 -38 -71 -138 -318 -157 -390 -15 -56 -30 -85
-39 -74 -5 9 -23 22 -86 64 -82 55 -233 141 -303 174 -125 58 -197 74 -337 74
-184 0 -281 -22 -416 -95 -79 -44 -95 -41 -118 23 -16 43 -20 299 -8 454 17
219 22 305 22 438 0 131 -2 145 -19 158 -33 24 -76 14 -181 -40z m615 -1190
c53 -8 125 -42 215 -102 71 -47 101 -69 155 -116 93 -81 226 -188 270 -218 77
-52 119 -64 204 -56 81 7 86 7 244 43 144 32 291 37 338 11 123 -68 199 -266
195 -513 -5 -271 -45 -507 -132 -769 -171 -511 -480 -884 -817 -986 -129 -39
-195 -20 -438 125 -200 120 -228 129 -353 122 -53 -4 -107 -9 -121 -12 -14 -3
-61 -6 -105 -7 -91 -2 -142 16 -206 74 -100 91 -190 288 -223 493 -14 87 -28
200 -33 280 -13 169 -6 629 12 800 11 110 21 183 31 225 3 14 8 36 11 50 15
82 76 239 108 278 75 91 98 114 147 146 95 63 253 118 378 133 25 3 47 7 49 9
3 2 12 2 20 0 9 -3 32 -7 51 -10z"/>
<path d="M2772 2327 c-76 -110 -90 -246 -39 -370 20 -48 71 -121 110 -158 l30
-29 27 43 c68 107 95 248 66 338 -18 55 -55 113 -103 164 -56 61 -58 61 -91
12z"/>
<path d="M2480 2344 c-102 -27 -149 -70 -207 -187 -20 -40 -52 -151 -53 -180
0 -13 127 -1 185 17 56 17 128 73 150 116 20 38 42 127 50 195 l7 55 -39 -1
c-21 0 -63 -7 -93 -15z"/>
<path d="M2535 1918 c-75 -86 -109 -200 -85 -287 8 -30 27 -59 63 -95 51 -50
155 -111 169 -97 15 14 37 171 34 246 -2 68 -7 89 -34 140 -34 62 -53 87 -89
118 -20 18 -21 17 -58 -25z"/>
</g>
</svg>
