<?xml version="1.0" encoding="UTF-8"?>
<svg width="163px" height="208px" viewBox="0 0 163 208" version="1.1" xmlns="http://www.w3.org/2000/svg" xmlns:xlink="http://www.w3.org/1999/xlink">
    <!-- Generator: Sketch 43.2 (39069) - http://www.bohemiancoding.com/sketch -->
    <title>logo</title>
    <desc>Created with Sketch.</desc>
    <defs></defs>
    <g id="Page-1" stroke="none" stroke-width="1" fill="none" fill-rule="evenodd">
        <path d="M142.59253,70.3578668 C163.145863,81.7111998 163.181863,98.9418661 162.624529,110.836532 C159.307196,181.667197 116.70453,209.261863 88.0831978,207.88853 C70.5858649,207.04853 54.260532,200.90053 34.7445325,200.253864 C29.0405326,200.065864 25.6885327,202.041863 23.3391994,203.38453 C20.9911995,204.725863 18.1018662,203.075197 17.5658662,202.015197 C16.6925329,200.28453 19.2645329,130.239199 15.6245329,49.1978673 C15.3231996,42.4685341 1.53653329,24.7112012 0.529866653,24.0405346 C-0.475466655,23.3698679 0.0831999979,18.5605347 1.08986664,17.2192014 C2.28319994,15.6285348 19.4578662,11.4205349 25.469866,9.17120164 C30.4845326,7.29520168 39.8538657,2.55253513 44.0031989,0.32453519 C44.9445322,-0.182131464 48.4978655,-0.332798127 48.9458654,1.68186849 C51.2978654,12.2738682 43.2485323,56.0485338 50.9285321,56.0365338 C53.9231987,56.0325338 58.6205319,47.7738673 80.9405313,49.8058673 C92.8151977,50.8858673 112.053864,65.5805336 112.053864,65.5805336 C112.053864,65.5805336 120.73253,36.4245343 127.241863,34.6818677 C133.21653,33.0805344 134.719197,37.8672009 134.489863,38.9605342 C134.317863,39.7792009 130.177863,40.9752008 128.829863,41.4192008 C124.477864,42.8538675 116.271197,67.3698668 116.271197,67.3698668 C116.271197,67.3698668 135.213863,66.2818669 142.59253,70.3578668 Z M150.921863,110.052532 C151.169863,98.2605327 147.399196,84.5071998 138.217863,83.2178665 C129.377863,81.9765331 115.869864,88.0818663 107.655197,86.8031997 C97.9898642,85.2991997 79.343198,59.369867 64.7151984,61.917867 C36.1485324,66.8938669 30.3338659,79.0245332 29.2151993,122.632532 C28.7991993,138.857865 28.8245326,177.305864 46.9378655,185.441864 C52.5351987,187.955197 64.5045317,183.281864 71.4418649,185.636531 C78.379198,187.995197 92.1658644,200.231197 100.551197,198.37653 C127.843197,192.33653 150.027196,152.708531 150.921863,110.052532 Z M84.5754646,124.496532 C79.7301313,130.765865 68.6914649,129.825865 68.6914649,129.825865 C68.6914649,129.825865 69.2607983,122.821865 73.7074648,116.368532 C78.0514647,110.063199 88.3501311,110.523199 88.3501311,110.523199 C88.3501311,110.523199 87.8581311,120.251199 84.5754646,124.496532 Z M98.5117309,110.755732 C98.5117309,110.755732 107.165064,117.385066 107.139731,125.778399 C107.117064,133.855732 101.818397,140.801065 101.818397,140.801065 C101.818397,140.801065 94.7863976,135.402398 93.4503977,125.778399 C92.2623977,117.203732 98.5117309,110.755732 98.5117309,110.755732 Z M86.6458645,130.487465 C86.6458645,130.487465 92.736531,135.718132 93.5631977,142.196798 C94.3911976,148.672798 91.8818644,157.223465 91.8818644,157.223465 C91.8818644,157.223465 80.6218647,153.568798 79.8925313,145.038132 C79.1738647,136.650132 86.6458645,130.487465 86.6458645,130.487465 Z" id="logo" fill="#000000"></path>
    </g>
</svg>