<?xml version="1.0" encoding="UTF-8"?>
<svg width="25px" height="47px" viewBox="0 0 25 47" version="1.1" xmlns="http://www.w3.org/2000/svg" xmlns:xlink="http://www.w3.org/1999/xlink">
    <!-- Generator: Sketch 43.2 (39069) - http://www.bohemiancoding.com/sketch -->
    <title>marker</title>
    <desc>Created with Sketch.</desc>
    <defs></defs>
    <g id="Page-1" stroke="none" stroke-width="1" fill="none" fill-rule="evenodd">
        <g id="marker" transform="translate(10.799230, 24.707878) rotate(111.000000) translate(-10.799230, -24.707878) translate(-9.200770, 4.707878)">
            <path d="M30.6369032,3.73655914 C30.9561247,4.59845161 31.5424946,5.47548387 32.343914,6.27686022 C33.1436559,7.07660215 34.0223226,7.66464516 34.8842151,7.98387097 L9.57496774,33.2931183 L5.90563441,33.8307527 C5.23526882,33.9281978 4.63380645,34.1970151 4.09109677,34.5296774 C4.42375914,33.9870108 4.69088172,33.383828 4.79002151,32.7151398 L5.32765591,29.0458065 L30.6369032,3.73655914 Z" id="Path" fill="#FFFFFF"></path>
            <path d="M32.4245161,0.430107527 C32.0380903,0.425067097 31.6651183,0.505711828 31.3089032,0.712365591 C31.3055428,0.714045591 31.2988224,0.724126452 31.2954624,0.725806452 C31.1828946,0.791329032 31.0736903,0.873655914 30.9863226,0.954301075 C30.9695213,0.969421935 30.94936,0.991263656 30.9325591,1.00806452 L3.91664516,28.0239785 C3.78727742,28.1533462 3.7015914,28.3263957 3.67470968,28.5078495 L3.08331183,32.4594624 C2.98250323,33.1348602 2.29703226,34.137871 1.6048172,34.9863441 C1.25871398,35.4114108 0.919311828,35.797828 0.663956989,36.1960215 C0.536266667,36.3959527 0.420339785,36.5891656 0.354817204,36.8815269 C0.289294624,37.1738667 0.354817204,37.6745591 0.650516129,37.9702151 C0.946215054,38.265871 1.43344086,38.3179957 1.72578495,38.2524731 C2.01812473,38.1869505 2.2247957,38.0710194 2.42470968,37.9433333 C2.82289462,37.687957 3.20931183,37.362 3.6343871,37.0159355 C4.48453763,36.3237204 5.47408602,35.6365806 6.14784946,35.5374409 L6.16129032,35.5374409 L10.0994409,34.946043 C10.2808946,34.9191613 10.4539441,34.8334753 10.5833118,34.7041075 L36.9407312,8.36002151 L37.6127742,7.67451613 C38.3184086,6.96888172 38.2713548,5.95073118 37.9622366,5.05352688 C37.6531183,4.15632258 37.0482581,3.23898925 36.2149247,2.40569892 C35.4437419,1.63451613 34.5986667,1.06664516 33.7686882,0.739032258 C33.3285161,0.564301075 32.8698495,0.434933333 32.4246022,0.429892473 L32.4245161,0.430107527 Z M30.6369032,3.73655914 C30.9561247,4.59845161 31.5424946,5.47548387 32.343914,6.27686022 C33.1436559,7.07660215 34.0223226,7.66464516 34.8842151,7.98387097 L9.57496774,33.2931183 L5.90563441,33.8307527 C5.23526882,33.9281978 4.63380645,34.1970151 4.09109677,34.5296774 C4.42375914,33.9870108 4.69088172,33.383828 4.79002151,32.7151398 L5.32765591,29.0458065 L30.6369032,3.73655914 Z" id="Shape" fill="#000000" fill-rule="nonzero"></path>
            <path d="M31.4180645,7.37075269 C31.3071785,7.37411269 31.1979699,7.39931441 31.0971656,7.44299785 C30.996357,7.48667957 30.9039527,7.55220645 30.8266667,7.63116989 L16.3574194,22.103428 C16.2767742,22.1823914 16.2112516,22.2781591 16.1675656,22.3823269 C16.1238839,22.4864946 16.1003613,22.6007398 16.1003613,22.7133075 C16.1003613,22.8258753 16.1222026,22.9401204 16.1642065,23.0442882 C16.2078882,23.1484559 16.2717333,23.2459011 16.3523785,23.3248645 C16.4330237,23.4055097 16.5287914,23.4693548 16.6329548,23.5113548 C16.7371226,23.5550366 16.8513677,23.5768774 16.9639355,23.5752 C17.0765032,23.5752 17.1907484,23.5516783 17.2949161,23.506314 C17.3990839,23.4626323 17.4948473,23.3971054 17.5738151,23.3164602 L32.0430624,8.84420215 C32.1657118,8.72491613 32.2530753,8.56698495 32.2866796,8.39727742 C32.3202817,8.22926452 32.3034809,8.04949677 32.2362753,7.89155699 C32.169071,7.73362581 32.0531441,7.59585806 31.9086538,7.50345376 C31.7641634,7.41104946 31.591114,7.36232688 31.4180731,7.36736344 L31.4180645,7.37075269 Z" id="Shape" fill="#000000" fill-rule="nonzero"></path>
        </g>
    </g>
</svg>