<?xml version="1.0" encoding="UTF-8"?>
<svg width="117px" height="41px" viewBox="0 0 117 41" version="1.1" xmlns="http://www.w3.org/2000/svg" xmlns:xlink="http://www.w3.org/1999/xlink">
    <!-- Generator: Sketch 43.2 (39069) - http://www.bohemiancoding.com/sketch -->
    <title>audi</title>
    <desc>Created with Sketch.</desc>
    <defs></defs>
    <g id="Artboards" stroke="none" stroke-width="1" fill="none" fill-rule="evenodd">
        <g id="Audi" transform="translate(-194.000000, -847.000000)" fill-rule="nonzero" fill="#FFFFFF">
            <g id="audi" transform="translate(194.000000, 847.000000)">
                <path d="M20.0474128,0.0515674381 L21.3250896,0.0503933931 C32.4259905,0.419454469 41.1241216,9.56382371 40.9401525,20.5989012 C40.7561834,31.6339788 31.7580737,40.4833287 20.7214628,40.4833287 C9.68485182,40.4833287 0.686742069,31.6339788 0.502772993,20.5989012 C0.318803917,9.56382371 9.016935,0.419454469 20.0474128,0.0515674381 Z M4.72757384,20.5284683 C4.87310161,29.2577088 11.9910093,36.2579408 20.7214628,36.2579408 C29.4519162,36.2579408 36.5698239,29.2577088 36.7153517,20.5284683 C36.8606896,11.8106126 29.9982038,4.58449312 21.288797,4.2757813 L20.1541285,4.2757813 C11.4447217,4.58449312 4.58223586,11.8106126 4.72757384,20.5284683 Z M45.3997402,0.0515674381 L46.677417,0.0503933931 C57.7783179,0.419454469 66.476449,9.56382371 66.29248,20.5989012 C66.1085109,31.6339788 57.1104011,40.4833287 46.0737902,40.4833287 C35.0371793,40.4833287 26.0390695,31.6339788 25.8551004,20.5989012 C25.6711314,9.56382371 34.3692625,0.419454469 45.3997402,0.0515674381 Z M30.0799013,20.5284683 C30.2254291,29.2577088 37.3433368,36.2579408 46.0737902,36.2579408 C54.8042436,36.2579408 61.9221513,29.2577088 62.0676791,20.5284683 C62.2130171,11.8106126 55.3505312,4.58449312 46.6411244,4.2757813 L45.506456,4.2757813 C36.7970492,4.58449312 29.9345633,11.8106126 30.0799013,20.5284683 Z M70.7520677,0.0515674381 L72.0297445,0.0503933931 C83.1306454,0.419454469 91.8287765,9.56382371 91.6448074,20.5989012 C91.4608383,31.6339788 82.4627286,40.4833287 71.4261177,40.4833287 C60.3895067,40.4833287 51.391397,31.6339788 51.2074279,20.5989012 C51.0234588,9.56382371 59.7215899,0.419454469 70.7520677,0.0515674381 Z M55.4322287,20.5284683 C55.5777565,29.2577088 62.6956642,36.2579408 71.4261177,36.2579408 C80.1565711,36.2579408 87.2744788,29.2577088 87.4200066,20.5284683 C87.5653445,11.8106126 80.7028587,4.58449312 71.9934519,4.2757813 L70.8587834,4.2757813 C62.1493766,4.58449312 55.2868908,11.8106126 55.4322287,20.5284683 Z M96.1043951,0.0515674381 L97.3820719,0.0503933931 C108.482973,0.419454469 117.181104,9.56382371 116.997135,20.5989012 C116.813166,31.6339788 107.815056,40.4833287 96.7784451,40.4833287 C85.7418342,40.4833287 76.7437244,31.6339788 76.5597553,20.5989012 C76.3757863,9.56382371 85.0739174,0.419454469 96.1043951,0.0515674381 Z M80.7845562,20.5284683 C80.930084,29.2577088 88.0479917,36.2579408 96.7784451,36.2579408 C105.508899,36.2579408 112.626806,29.2577088 112.772334,20.5284683 C112.917672,11.8106126 106.055186,4.58449312 97.3457793,4.2757813 L96.2111109,4.2757813 C87.5017041,4.58449312 80.6392182,11.8106126 80.7845562,20.5284683 Z" id="Shape"></path>
            </g>
        </g>
    </g>
</svg>