<?xml version="1.0" encoding="UTF-8"?>
<svg width="515px" height="419px" viewBox="0 0 515 419" version="1.1" xmlns="http://www.w3.org/2000/svg" xmlns:xlink="http://www.w3.org/1999/xlink">
    <!-- Generator: Sketch 43.2 (39069) - http://www.bohemiancoding.com/sketch -->
    <title>Group</title>
    <desc>Created with Sketch.</desc>
    <defs></defs>
    <g id="Page-1" stroke="none" stroke-width="1" fill="none" fill-rule="evenodd">
        <g id="Group" transform="translate(-6.000000, -4.000000)" fill-rule="nonzero">
            <g transform="translate(273.339912, 173.094187)" id="Shape" fill="#265787">
                <path d="M1.18069945,66.1644947 C2.14342361,48.9898812 10.5536366,33.8587833 23.2416145,23.1325969 C35.6843702,12.5971385 52.4321377,6.15779375 70.7057322,6.15779375 C88.9611621,6.15779375 105.70893,12.5971385 118.160768,23.1325969 C130.839663,33.8587833 139.249876,48.9898812 140.221683,66.1463302 C141.184407,83.7932229 134.091128,100.186759 121.648372,112.338866 C108.960394,124.699864 90.9138573,132.456142 70.7057322,132.456142 C50.4976071,132.456142 32.4147409,124.699864 19.7358453,112.338866 C7.28400735,100.186759 0.208892979,83.7932229 1.18069945,66.1644947 Z"></path>
            </g>
            <g transform="translate(0.870810, 0.530646)" id="Shape" fill="#E87D0D">
                <path d="M162.936523,273.431473 C163.054593,280.152369 165.198017,293.212704 168.413152,303.412117 C175.170386,325.000725 186.632253,344.972684 202.580778,362.574165 C218.947089,380.66609 239.10072,395.197757 262.378664,405.51524 C286.846389,416.350414 313.357633,421.872448 340.895177,421.827036 C368.387309,421.790707 394.898553,416.159686 419.366278,405.242772 C442.644222,394.825383 462.779689,380.23014 479.118753,362.129133 C495.058195,344.454993 506.501898,324.446705 513.277296,302.858098 C516.68316,291.950265 518.835666,280.878952 519.698484,269.771309 C520.543139,258.827148 520.188929,247.864822 518.635855,236.911578 C515.602366,215.568193 508.218453,195.541739 496.847409,177.286333 C486.448172,160.511341 473.042692,145.825275 457.103249,133.464276 L457.139578,133.437029 L296.282902,9.92694478 C296.137586,9.81795728 296.019516,9.69988749 295.865116,9.59998228 C285.31148,1.49857812 267.564659,1.525825 255.957475,9.64539374 C244.223139,17.8557854 242.878958,31.4338114 253.323607,39.9984125 L253.278196,40.0438239 L320.369171,94.6011499 L115.881109,94.8191249 L115.60864,94.8191249 C98.7064736,94.8372895 82.4582328,105.926768 79.2430974,119.940744 C75.937139,134.218106 87.4171705,146.061414 104.991428,146.124991 L104.964181,146.188567 L208.611427,145.988756 L23.6594004,287.954057 C23.4232605,288.126621 23.168956,288.308266 22.9509808,288.48083 C5.50387588,301.840881 -0.136234551,324.056166 10.8533526,338.115554 C22.0064212,352.411081 45.7203155,352.438328 63.3490664,338.197295 L164.289787,255.58477 C164.289787,255.58477 162.818454,266.737824 162.936523,273.431473 Z M422.318027,310.777856 C401.519552,331.966842 372.401687,343.982714 340.895177,344.04629 C309.343255,344.100784 280.22539,332.1939 259.426915,311.041242 C249.263818,300.732841 241.798164,288.871369 237.193436,276.237901 C232.679531,263.822408 230.926647,250.644003 232.089182,237.347528 C233.18814,224.350769 237.057202,211.95344 243.233168,200.73681 C249.300147,189.710908 257.655866,179.747634 267.973363,171.319268 C288.19057,154.843991 313.929818,145.92518 340.849765,145.888851 C367.79696,145.852522 393.518043,154.689592 413.753415,171.110375 C424.052747,179.502412 432.399384,189.429357 438.466363,200.437095 C444.669576,211.644643 448.51139,223.996559 449.65576,237.029648 C450.800131,250.307958 449.047246,263.468199 444.533341,275.892774 C439.919531,288.562571 432.481125,300.424044 422.318027,310.777856 Z"></path>
            </g>
        </g>
    </g>
</svg>