<?xml version="1.0" encoding="UTF-8"?>
<svg width="130px" height="25px" viewBox="0 0 130 25" version="1.1" xmlns="http://www.w3.org/2000/svg" xmlns:xlink="http://www.w3.org/1999/xlink">
    <!-- Generator: Sketch 43.2 (39069) - http://www.bohemiancoding.com/sketch -->
    <title>ecobee logo</title>
    <desc>Created with Sketch.</desc>
    <defs></defs>
    <g id="Artboards" stroke="none" stroke-width="1" fill="none" fill-rule="evenodd">
        <g id="ecobee" transform="translate(-194.000000, -865.000000)" fill-rule="nonzero" fill="#FFFFFF">
            <g id="ecobee-logo" transform="translate(194.000000, 865.000000)">
                <path d="M10.4831148,6.07708333 C13.4379508,6.07708333 15.665,6.80729167 17.1642623,8.26875 C18.6635246,9.73020833 19.412623,11.9114583 19.412623,14.8125 L19.412623,16.453125 L1.97344262,16.453125 C2.01606557,18.7447917 2.60959016,20.4322917 3.75295082,21.515625 C4.89631148,22.5989583 6.64278689,23.1395833 8.99557377,23.1395833 L10.4181148,23.1395833 C12.1656557,23.1395833 13.5668852,22.8770833 14.6239344,22.3510417 C15.6809836,21.825 16.4140984,21.046875 16.8243443,20.0177083 L18.8947541,20.0177083 C18.4631967,21.6364583 17.5361475,22.871875 16.112541,23.7229167 C14.6889344,24.5729167 12.812459,25 10.4831148,25 L8.9295082,25 C5.97467213,25 3.74762295,24.2697917 2.24836066,22.8083333 C0.749098361,21.346875 0,19.165625 0,16.2635417 L0,14.8125 C0,11.9114583 0.749098361,9.73020833 2.24836066,8.26875 C3.74762295,6.80729167 5.97467213,6.07708333 8.9295082,6.07708333 L10.4831148,6.07708333 L10.4831148,6.07708333 Z M32.5841803,6.07708333 C35.2161475,6.07708333 37.2759016,6.66041667 38.7645082,7.82708333 C40.2520492,8.99375 41.1364754,10.7333333 41.4177869,13.0458333 L39.4432787,13.0458333 C39.1630328,11.3020833 38.4565574,10.0145833 37.3238525,9.18333333 C36.1922131,8.353125 34.5906557,7.9375 32.5191803,7.9375 L31.0955738,7.9375 C28.7012295,7.9375 26.932377,8.50520833 25.7890164,9.640625 C24.6467213,10.7760417 24.0745082,12.5322917 24.0745082,14.9072917 L24.0745082,16.16875 C24.0745082,18.5458333 24.6467213,20.3010417 25.790082,21.4364583 C26.932377,22.571875 28.7012295,23.1395833 31.0966393,23.1395833 L32.5191803,23.1395833 C34.5906557,23.1395833 36.1922131,22.7239583 37.324918,21.89375 C38.4565574,21.0635417 39.1630328,19.775 39.4432787,18.0291667 L41.4167213,18.0291667 C41.1364754,20.3427083 40.2520492,22.0822917 38.7634426,23.25 C37.2759016,24.4166667 35.215082,25 32.5841803,25 L31.0316393,25 C28.0757377,25 25.8486885,24.2697917 24.3504918,22.8083333 C22.8501639,21.346875 22.1021311,19.165625 22.1021311,16.2635417 L22.1021311,14.8125 C22.1021311,11.9114583 22.8501639,9.73020833 24.3504918,8.26875 C25.8486885,6.80729167 28.0757377,6.07708333 31.0316393,6.07708333 L32.5841803,6.07708333 L32.5841803,6.07708333 Z M54.4390984,6.07708333 C57.3939344,6.07708333 59.6209836,6.80729167 61.1202459,8.26875 C62.6195082,9.73020833 63.3686066,11.9114583 63.3686066,14.8125 L63.3686066,16.2635417 C63.3686066,19.165625 62.6195082,21.346875 61.1202459,22.8083333 C59.6220492,24.2697917 57.395,25 54.4401639,25 L52.887623,25 C49.9317213,25 47.7046721,24.2697917 46.2064754,22.8083333 C44.7072131,21.346875 43.9581148,19.165625 43.9581148,16.2635417 L43.9581148,14.8125 C43.9581148,11.9114583 44.7072131,9.73020833 46.2064754,8.26875 C47.7046721,6.80729167 49.9317213,6.07708333 52.887623,6.07708333 L54.4401639,6.07708333 L54.4390984,6.07708333 Z M68.3427049,0 L68.3427049,8.97916667 C69.0108197,8.01145833 69.9218852,7.28645833 71.0759016,6.80208333 C72.229918,6.31875 73.637541,6.07708333 75.2977049,6.07708333 L76.8513115,6.07708333 C79.8061475,6.07708333 82.0331967,6.80729167 83.532459,8.26875 C85.0317213,9.73020833 85.7808197,11.9114583 85.7808197,14.8125 L85.7808197,16.2635417 C85.7808197,19.165625 85.0317213,21.346875 83.532459,22.8083333 C82.0331967,24.2697917 79.8061475,25 76.8513115,25 L75.2977049,25 C72.3428689,25 70.1158197,24.2697917 68.6165574,22.8083333 C67.1172951,21.346875 66.3681967,19.165625 66.3681967,16.2635417 L66.3681967,0 L68.3427049,0 Z M98.9683607,6.07708333 C101.923197,6.07708333 104.150246,6.80729167 105.649508,8.26875 C107.14877,9.73020833 107.897869,11.9114583 107.897869,14.8125 L107.897869,16.453125 L90.4608197,16.453125 C90.5034426,18.7447917 91.0959016,20.4322917 92.2403279,21.515625 C93.382623,22.5989583 95.1301639,23.1395833 97.4818852,23.1395833 L98.9054918,23.1395833 C100.653033,23.1395833 102.054262,22.8770833 103.111311,22.3510417 C104.168361,21.825 104.901475,21.046875 105.311721,20.0177083 L107.382131,20.0177083 C106.950574,21.6364583 106.023525,22.871875 104.599918,23.7229167 C103.175246,24.5729167 101.297705,25 98.9683607,25 L97.4158197,25 C94.459918,25 92.2328689,24.2697917 90.7346721,22.8083333 C89.2354098,21.346875 88.4863115,19.165625 88.4863115,16.2635417 L88.4863115,14.8125 C88.4863115,11.9114583 89.2354098,9.73020833 90.7346721,8.26875 C92.2328689,6.80729167 94.459918,6.07708333 97.4158197,6.07708333 L98.9683607,6.07708333 L98.9683607,6.07708333 Z M121.070492,6.07708333 C124.024262,6.07708333 126.252377,6.80729167 127.751639,8.26875 C129.249836,9.73020833 130,11.9114583 130,14.8125 L130,16.453125 L112.56082,16.453125 C112.603443,18.7447917 113.196967,20.4322917 114.340328,21.515625 C115.483689,22.5989583 117.230164,23.1395833 119.581885,23.1395833 L121.005492,23.1395833 C122.753033,23.1395833 124.154262,22.8770833 125.211311,22.3510417 C126.268361,21.825 127.001475,21.046875 127.411721,20.0177083 L129.482131,20.0177083 C129.050574,21.6364583 128.123525,22.871875 126.699918,23.7229167 C125.276311,24.5739583 123.399836,25 121.070492,25 L119.516885,25 C116.560984,25 114.335,24.2697917 112.835738,22.8083333 C111.336475,21.346875 110.587377,19.165625 110.587377,16.2635417 L110.587377,14.8125 C110.587377,11.9114583 111.336475,9.73020833 112.835738,8.26875 C114.335,6.80729167 116.560984,6.07708333 119.516885,6.07708333 L121.070492,6.07708333 L121.070492,6.07708333 Z M54.3751639,7.9375 L52.9515574,7.9375 C50.5572131,7.9375 48.7883607,8.50520833 47.645,9.640625 C46.5016393,10.7760417 45.9294262,12.5322917 45.9294262,14.9072917 L45.9294262,16.16875 C45.9294262,18.5458333 46.5016393,20.3010417 47.645,21.4364583 C48.7883607,22.571875 50.5572131,23.1395833 52.9515574,23.1395833 L54.3751639,23.1395833 C56.7684426,23.1395833 58.5372951,22.571875 59.6817213,21.4364583 C60.8240164,20.3010417 61.3951639,18.5458333 61.3951639,16.16875 L61.3951639,14.9083333 C61.3951639,12.5322917 60.8240164,10.7760417 59.6806557,9.640625 C58.5372951,8.50520833 56.7684426,7.9375 54.3740984,7.9375 L54.3751639,7.9375 Z M76.7863115,7.9375 L75.3627049,7.9375 C72.9694262,7.9375 71.1995082,8.50520833 70.0561475,9.640625 C68.9138525,10.7760417 68.3427049,12.5322917 68.3427049,14.9072917 L68.3427049,16.16875 C68.3427049,18.5458333 68.9138525,20.3010417 70.0572131,21.4364583 C71.1995082,22.571875 72.9694262,23.1395833 75.3637705,23.1395833 L76.7863115,23.1395833 C79.1806557,23.1395833 80.9495082,22.571875 82.0928689,21.4364583 C83.2362295,20.3010417 83.8084426,18.5458333 83.8084426,16.16875 L83.8084426,14.9083333 C83.8084426,12.5322917 83.2362295,10.7760417 82.0928689,9.640625 C80.9495082,8.50520833 79.1806557,7.9375 76.7863115,7.9375 L76.7863115,7.9375 Z M10.4181148,7.9375 L8.9945082,7.9375 C6.64278689,7.9375 4.89631148,8.47916667 3.75295082,9.5625 C2.60959016,10.6458333 2.01606557,12.321875 1.97344262,14.5927083 L17.4391803,14.5927083 C17.3965574,12.321875 16.8030328,10.6447917 15.6596721,9.56145833 C14.5163115,8.47916667 12.7687705,7.9375 10.4181148,7.9375 L10.4181148,7.9375 Z M98.9033607,7.9375 L97.4808197,7.9375 C95.1290984,7.9375 93.3815574,8.47916667 92.2381967,9.5625 C91.0948361,10.6458333 90.502377,12.321875 90.4586885,14.5927083 L105.924426,14.5927083 C105.881803,12.321875 105.288279,10.6447917 104.144918,9.56145833 C103.001557,8.47916667 101.255082,7.9375 98.9044262,7.9375 L98.9033607,7.9375 Z M121.005492,7.9375 L119.581885,7.9375 C117.230164,7.9375 115.483689,8.47916667 114.339262,9.5625 C113.196967,10.6458333 112.603443,12.321875 112.56082,14.5927083 L128.026557,14.5927083 C127.982869,12.321875 127.39041,10.6447917 126.247049,9.56145833 C125.103689,8.47916667 123.356148,7.9375 121.004426,7.9375 L121.005492,7.9375 Z" id="Shape"></path>
            </g>
        </g>
    </g>
</svg>