<?xml version="1.0" encoding="UTF-8"?>
<svg width="146px" height="58px" viewBox="0 0 146 58" version="1.1" xmlns="http://www.w3.org/2000/svg" xmlns:xlink="http://www.w3.org/1999/xlink">
    <!-- Generator: Sketch 43.2 (39069) - http://www.bohemiancoding.com/sketch -->
    <title>World_Vision_logo</title>
    <desc>Created with Sketch.</desc>
    <defs></defs>
    <g id="Artboards" stroke="none" stroke-width="1" fill="none" fill-rule="evenodd">
        <g id="World-Vision" transform="translate(-197.000000, -860.000000)" fill-rule="nonzero">
            <g id="World_Vision_logo" transform="translate(197.000000, 860.000000)">
                <path d="M43.0090236,0.7316 C42.9123982,0.7316 42.841541,0.662275 42.841541,0.57584 C42.841541,0.49029 42.9157503,0.4202275 43.0090236,0.4202275 L145.102559,0.4202275 L145.102559,58.03004 C121.680759,27.284845 85.0729273,5.87522 43.0090236,0.7316" id="path2276" fill="#F3912D"></path>
                <path d="M128.935718,34.55807 C129.772954,23.6331875 129.840745,17.8848175 131.735545,16.3340025 C133.176136,15.1542975 136.331873,14.555595 142.524713,14.1512975 C135.745469,13.7111575 133.511707,13.360845 131.596571,11.81003 C129.745838,10.312905 129.386538,8.259115 128.935718,2.3580825 C128.491677,8.1453925 128.257792,10.019675 126.400279,11.714155 C124.424129,13.5164575 122.485265,13.6872625 115.34672,14.1512975 C121.895471,14.57949 124.373285,14.9595975 126.135889,16.4027375 C128.193389,18.08527 128.0917,23.5314125 128.935718,34.55807" id="path2976" fill="#FFFFFF"></path>
                <path d="M27.8811525,34.0983125 L27.8811525,43.79629 L30.2579912,43.79629 L30.2579912,35.904745 C31.0567646,35.1286 31.6273164,35.38938 33.2053817,36.85671 L34.1655765,34.434465 C33.6868691,34.2006775 33.0690044,33.9443225 32.1783882,33.9443225 C31.2849847,33.9443225 30.6225871,34.434465 30.3025212,34.8712125 L30.1885232,35.02712 L30.1662398,35.00057 L30.1885232,34.098755 L27.8812631,34.098755 L27.8811525,34.0983125 Z M37.5026115,28.9650175 L35.1257757,28.9650175 L35.1257757,43.79629 L37.5026115,43.79629 L37.5026115,28.9650175 Z M16.7066797,38.9487025 C16.7066797,41.656655 18.4879151,43.89954 21.3685099,43.89954 C24.2463188,43.89954 26.0303385,41.656655 26.0303385,38.9487025 C26.0303385,36.24075 24.2463188,33.9947675 21.3685099,33.9947675 C18.4879151,33.9947675 16.7066797,36.24075 16.7066797,38.9487025 L16.7066797,38.9487025 Z M66.4783142,34.0983125 L64.1014784,34.0983125 L64.1014784,43.79629 L66.4783142,43.79629 L66.4783142,34.0983125 Z M76.6703279,34.0983125 L76.6703279,39.5425375 C76.6703279,42.32601 77.72237,44.10722 82.7042631,44.10722 C88.5322469,44.10722 90.5890167,41.57848 90.5890167,38.7917625 C90.5890167,36.0585875 88.6463569,33.9160025 85.9717195,33.9160025 C83.0465962,33.9160025 81.3794694,36.1122775 81.3794694,38.3300875 C81.3794694,39.92884 82.2478243,41.5532575 84.1209026,42.429555 L84.6914573,41.6818775 C83.9372139,40.7015925 83.6421951,39.5676125 83.6421951,38.509005 C83.6421951,36.573805 84.6914573,34.9246075 85.9244052,34.9246075 C87.4802048,34.9246075 88.1871338,36.8848825 88.1871338,38.9206775 C88.1871338,40.959275 87.5497848,43.25585 83.3193478,43.25585 C79.9628314,43.25585 79.0471652,42.4830975 79.0471652,40.186375 L79.0471652,34.0983125 L76.6703279,34.0983125 L76.6703279,34.0983125 Z M77.9060586,29.712695 C77.1963482,29.712695 76.6480607,30.331605 76.6480607,31.1326775 C76.6480607,31.9306525 77.1963482,32.5495625 77.9060586,32.5495625 C78.6129877,32.5495625 79.1612737,31.9306525 79.1612737,31.1326775 C79.1612737,30.331605 78.6129877,29.712695 77.9060586,29.712695 L77.9060586,29.712695 Z M65.5876995,29.712695 C64.8779876,29.712695 64.3297015,30.331605 64.3297015,31.1326775 C64.3297015,31.9306525 64.8779876,32.5495625 65.5876995,32.5495625 C66.2974069,32.5495625 66.8456944,31.9306525 66.8456944,31.1326775 C66.8456944,30.331605 66.2974069,29.712695 65.5876995,29.712695 L65.5876995,29.712695 Z M68.3987097,36.75582 C68.1704896,40.444205 72.9686941,39.5676125 72.8323197,41.81094 C72.7628739,42.7123125 72.0780764,43.02339 71.3461002,42.998315 C70.1576838,42.89654 69.4257062,42.121575 68.7855743,41.2705 L68.0786453,43.0486125 C69.038843,43.667375 70.0881008,43.9786 71.0037671,44.053825 C73.0605399,44.2100275 74.7972453,43.2026025 74.9113568,40.959275 C75.1173112,37.47857 70.1576838,37.91517 70.2495266,36.137205 C70.2940493,35.3612075 71.0705658,34.9747575 71.8721235,35.028005 C72.6931611,35.104705 73.3332929,35.6219875 74.0430034,36.341345 L74.6831352,34.7422975 C73.792516,34.3056975 72.9464313,34.0983125 72.1921879,34.019695 C69.9739922,33.865705 68.4905585,35.18229 68.3987097,36.75582 L68.3987097,36.75582 Z M43.6478783,44.003675 C44.769499,44.003675 45.6823824,43.56383 46.5062073,42.8412275 L46.5507152,42.8692525 L46.5507152,43.795995 L48.7466466,43.795995 L48.7466466,28.96487 L46.3698094,28.96487 L46.3698094,34.8709175 C45.7046305,34.30555 44.6999012,33.9440275 43.6729077,33.9440275 C42.3703768,33.9440275 39.2615664,34.845695 39.2615664,39.1023975 C39.2615664,42.27527 41.730245,44.003085 43.6478577,44.003085 L43.6478783,44.003675 Z M57.6110809,43.7970275 L58.61859,43.7970275 L63.645019,30.772335 L62.3424896,30.772335 L58.8468131,39.93002 L55.395668,30.772335 L52.5150762,30.772335 L57.6110809,43.7970275 L57.6110809,43.7970275 Z M101.237451,43.7970275 L101.237451,38.45974 C101.237451,34.8470225 98.7910357,33.9452075 97.3521275,33.9452075 C96.3223526,33.9452075 95.4540007,34.381955 94.5856473,35.0544075 L94.5411394,35.0293325 L94.5411394,34.099345 L92.3479923,34.099345 L92.3479923,43.7970275 L94.7248295,43.7970275 L94.7248295,35.9810025 C95.4317585,35.2868675 96.1192003,35.0010125 96.7120193,35.0010125 C97.9700187,35.0010125 98.8383692,36.3704025 98.8383692,37.8660525 L98.8383692,43.7970275 L101.237475,43.7970275 L101.237451,43.7970275 Z M10.5140804,32.0100075 L9.16423728,32.0100075 L6.46733457,39.87633 L3.58952415,30.822485 L0.823041862,30.822485 L5.09800912,43.7719525 L6.40053809,43.7719525 L9.16423728,35.7768625 L11.9056712,43.7719525 L13.2109834,43.7719525 L17.4831652,30.8509525 L16.1806402,30.8509525 L13.1859329,39.87633 L10.5140804,32.0100075 L10.5140804,32.0100075 Z M23.5171078,38.949735 C23.5171078,41.1927675 22.8547073,42.9739775 21.3684907,42.9739775 C19.8822682,42.9739775 19.2198706,41.1927675 19.2198706,38.949735 C19.2198706,36.7034575 19.8822682,34.9254925 21.3684907,34.9254925 C22.8547073,34.9254925 23.5171078,36.7034575 23.5171078,38.949735 L23.5171078,38.949735 Z M46.3698094,36.0343975 L46.3698094,41.890295 C45.7519433,42.483835 45.1813915,42.92073 44.3130381,42.92073 C43.260996,42.92073 41.8888865,41.91537 41.8888865,39.00018 C41.8888865,35.852235 44.0597694,33.58398 46.3698094,36.0343975 L46.3698094,36.0343975 Z" id="path2272" fill="#FFFFFF"></path>
            </g>
        </g>
    </g>
</svg>